<?xml version="1.0" encoding="utf-8"?>
<!-- Generator: Adobe Illustrator 22.0.0, SVG Export Plug-In . SVG Version: 6.00 Build 0)  -->
<svg version="1.1" id="Layer_1" xmlns="http://www.w3.org/2000/svg" xmlns:xlink="http://www.w3.org/1999/xlink" x="0px" y="0px"
	 viewBox="0 0 200 50" style="enable-background:new 0 0 200 50;" xml:space="preserve">
<style type="text/css">
	.st0{fill:#545CD8;}
</style>
<path class="st0" d="M19.9,49.6h-7V1.2h5.7l15.9,23.5l16-23.5H56v48.3h-6.9v-34L36.5,34.3h-3.9L20,15.5L19.9,49.6z"/>
<path class="st0" d="M67.5,7.9c9.4-9.6,24.9-9.8,34.5-0.3c0.1,0.1,0.2,0.2,0.3,0.3c9.6,9.7,9.6,25.2,0,34.9
	c-9.4,9.6-24.9,9.8-34.5,0.3c-0.1-0.1-0.2-0.2-0.3-0.3C57.9,33.2,57.9,17.6,67.5,7.9L67.5,7.9z M97.4,12.9
	c-3.3-3.3-7.8-5.2-12.5-5.2s-9.1,1.9-12.3,5.2c-6.9,6.9-6.9,18.1,0,25c3.2,3.3,7.7,5.2,12.3,5.2c9.8-0.1,17.7-8.1,17.6-17.9
	C102.4,20.6,100.6,16.2,97.4,12.9L97.4,12.9z"/>
<path class="st0" d="M131.2,1.4c15.8,0,23.7,12.1,23.7,24.1c0,12.1-7.9,24.1-23.7,24.1h-17.3V1.4H131.2z M131.2,42.6
	c11.2,0,16.8-8.5,16.8-17.1s-5.7-17.2-16.8-17.2h-10.3v34.3H131.2z"/>
<path class="st0" d="M165.5,42.6H188v7h-29.5V1.4h29.4v7h-22.4v13.5h21.9v7h-21.9V42.6z"/>
</svg>
