<?xml version="1.0" encoding="utf-8"?>
<!-- Generator: Adobe Illustrator 22.0.0, SVG Export Plug-In . SVG Version: 6.00 Build 0)  -->
<svg version="1.1" id="Layer_1" xmlns="http://www.w3.org/2000/svg" xmlns:xlink="http://www.w3.org/1999/xlink" x="0px" y="0px"
	 viewBox="0 0 200 50" style="enable-background:new 0 0 200 50;" xml:space="preserve">
<style type="text/css">
	.st0{fill:#1D89CF;}
	.st1{fill:#FFFFFF;}
</style>
<rect x="37.1" y="0.1" class="st0" width="134.5" height="50.1"/>
<path class="st1" d="M50.9,41.2h-4.7V8.8H50l10.6,15.7L71.4,8.8H75v32.3h-4.6V18.4L62,31h-2.6l-8.4-12.6L50.9,41.2z"/>
<path class="st1" d="M82.7,13.3c6.3-6.4,16.7-6.6,23.1-0.2c0.1,0.1,0.1,0.1,0.2,0.2c6.4,6.5,6.4,16.9,0,23.4
	c-6.3,6.4-16.7,6.6-23.1,0.2c-0.1-0.1-0.1-0.1-0.2-0.2C76.3,30.3,76.3,19.8,82.7,13.3L82.7,13.3z M102.8,16.7
	c-2.2-2.2-5.2-3.5-8.4-3.5s-6.1,1.3-8.2,3.5c-4.6,4.6-4.6,12.1,0,16.7c2.1,2.2,5.2,3.5,8.2,3.5c6.6-0.1,11.9-5.4,11.8-12
	C106.1,21.8,104.9,18.9,102.8,16.7L102.8,16.7z"/>
<path class="st1" d="M125.4,9c10.6,0,15.9,8.1,15.9,16.1c0,8.1-5.3,16.1-15.9,16.1h-11.6V9H125.4z M125.4,36.5
	c7.5,0,11.2-5.7,11.2-11.4s-3.8-11.5-11.2-11.5h-6.9v23H125.4z"/>
<path class="st1" d="M148.3,36.5h15.1v4.7h-19.8V9h19.7v4.7h-15v9H163v4.7h-14.7V36.5z"/>
</svg>
